<svg width="26" height="24" viewBox="0 0 26 24" fill="none" xmlns="http://www.w3.org/2000/svg">
<path d="M23.7632 19.3452V11.3539C23.7632 10.1542 23.2841 9.00292 22.4127 8.17828C21.3913 7.21162 19.9742 5.90754 18.8301 4.9942C16.666 3.26652 15.5859 1.85492 13 1.85492C10.4141 1.85492 9.33403 3.26652 7.16991 4.9942C6.02584 5.90754 4.60871 7.21162 3.58729 8.17828C2.71594 9.00292 2.23676 10.1542 2.23676 11.3539V19.3452C2.23676 20.8313 3.44147 21.6378 4.92757 21.6378H8.76385C9.31614 21.6378 9.76385 21.19 9.76385 20.6378V16.3006V15.3398C9.76385 13.5289 11.2318 12.0609 13.0427 12.0609C14.8536 12.0609 16.3216 13.5289 16.3216 15.3398V16.3006V20.6378C16.3216 21.19 16.7693 21.6378 17.3216 21.6378H21.0724C22.5585 21.6378 23.7632 20.8313 23.7632 19.3452Z" stroke="#B8B8B8" stroke-width="3"/>
</svg>
