<svg width="24" height="24" viewBox="0 0 24 24" fill="none" xmlns="http://www.w3.org/2000/svg">
<path d="M23.8738 20.1633V11.3474C23.8738 10.0239 23.3452 8.75386 22.3839 7.84413C21.2571 6.77772 19.6938 5.33909 18.4316 4.3315C16.0442 2.42554 14.8527 0.868286 12 0.868286C9.14725 0.868286 7.95572 2.42554 5.56828 4.3315C4.30616 5.33909 2.74281 6.77772 1.61599 7.84413C0.654727 8.75386 0.126099 10.024 0.126099 11.3474V20.1633C0.126099 21.8027 1.45513 23.1318 3.09456 23.1318H7.05252C8.14548 23.1318 9.03149 22.2458 9.03149 21.1528V16.8045C9.03149 15.812 9.52753 14.8852 10.3534 14.3346C11.3505 13.6699 12.6495 13.6699 13.6466 14.3346C14.4724 14.8852 14.9684 15.812 14.9684 16.8045V21.1528C14.9684 22.2458 15.8544 23.1318 16.9474 23.1318H20.9054C22.5448 23.1318 23.8738 21.8027 23.8738 20.1633Z" fill="black"/>
</svg>
