<svg xmlns="http://www.w3.org/2000/svg" width="724.2" height="724" viewBox="0 0 724.2 724"><path d="M138.09,487.2c.9-54.09-1.69-121,1.31-187.95,1.55-34.62,9.85-67.16,31.25-95.49,28.23-37.4,65.76-58,112.09-63a282.23,282.23,0,0,1,28.58-2.06c127.33-.69,254.66-1.18,382,.2,43.93.48,84.21,12.36,117.13,43.6,34.91,33.12,49.46,74.7,50.14,121.58,1.91,131.17,2.21,262.36-.13,393.53-1.1,61.35-26,110.24-80.12,142.07-26.76,15.74-56.46,21.05-86.89,21.44-122.83,1.54-245.68.67-368.52.5a342.33,342.33,0,0,1-49.13-3.31c-73-10.64-125.71-64.71-134.49-137.85-2.43-20.22-3.14-40.49-3.18-60.82q-.08-39.89,0-79.79Z" transform="translate(-137.9 -138)"/><path d="M523,771c-63,0-105.56-7.6-144.5-29.84C329,712.91,298.06,669.57,282,615.9c-24.45-81.54-24.6-163.54,4.13-244,30.56-85.55,93.59-131.64,183.17-141.7,52-5.85,102.84-.5,150.35,22.95,59.5,29.36,94.09,79.08,112.69,141.34,1.33,4.47-.23,5.76-4.13,6.74-11.87,3-23.73,6.09-35.48,9.51-4.73,1.37-5.41-1.05-6.47-4.63a215.44,215.44,0,0,0-18.71-44.45c-21.21-37.82-52.81-62.86-94-75.39a236.79,236.79,0,0,0-134.44-1.59c-60.11,16.7-96.31,58-113.2,116.43-19.57,67.65-19.58,135.8,2,203.09C350.85,676,401.86,714,476,721.7c38.49,4,76.76,2.2,112.49-14.29,36.83-17,64.43-43,73.58-84.51,7.64-34.67-6.08-69.3-35-89.77-5.92-4.2-7-2.22-8,3.62-3.15,20-9.08,39-20.1,56.12-25.07,38.81-62.43,51.91-106.53,49.06-32.11-2.08-60.11-13.94-79.14-41.07-28.2-40.2-16.34-95.24,25.4-121.4,18.88-11.84,39.64-17.91,61.71-19.63,21.8-1.69,43.6-1.73,65.27,1.65,6.27,1,8.41.08,6.55-7.2-6.62-25.86-20.59-44.48-48-49.6-28.79-5.38-55.62-1.94-76.13,21.77-4,4.61-6.49,5.42-11.46,1.66-8.8-6.66-18-12.76-27.32-18.76-4.3-2.78-4.57-4.89-1.38-9.05,25.38-33.09,59.82-46.54,100.34-45.48,44.55,1.15,79.73,18.85,99.92,60.59,8,16.6,12.15,34.33,13.51,52.62.45,6,2.28,9.29,8.09,12,99.73,46.77,100.68,163.48,39.84,227C624.35,754.35,567.78,771.24,523,771Z" transform="translate(-137.9 -138)" fill="#fefefe"/><path d="M526.79,506.77c14.09-.39,28,1.51,41.87,3.49,4,.57,6.68,1.56,6,6.67-2.32,16.61-5.26,33-13.83,47.79-8,13.88-19.56,23.16-35.17,27-19.07,4.64-38,4.38-56-4.12-13.79-6.49-23.18-16.75-24-32.88-.84-16.33,7.07-27.94,20.52-36.13,14.75-9,31.36-10.86,48.14-11.75C518.43,506.58,522.61,506.77,526.79,506.77Z" transform="translate(-137.9 -138)"/></svg>