<svg width="22" height="24" viewBox="0 0 22 24" fill="none" xmlns="http://www.w3.org/2000/svg">
<path d="M3.46647 22.4102H18.4972C19.9332 22.4102 20.9244 20.9722 20.4134 19.6301C19.2021 16.4494 16.1523 14.3473 12.7487 14.3473H9.16571C5.74822 14.3473 2.70253 16.5033 1.56673 19.7265C1.10499 21.0369 2.07717 22.4102 3.46647 22.4102Z" fill="black"/>
<path d="M11.0465 9.72913C13.2942 9.72913 15.1162 7.90707 15.1162 5.65945C15.1162 3.41184 13.2942 1.58978 11.0465 1.58978C8.79892 1.58978 6.97686 3.41184 6.97686 5.65945C6.97686 7.90707 8.79892 9.72913 11.0465 9.72913Z" fill="black"/>
<path d="M3.46647 22.4102H18.4972C19.9332 22.4102 20.9244 20.9722 20.4134 19.6301C19.2021 16.4494 16.1523 14.3473 12.7487 14.3473H9.16571C5.74822 14.3473 2.70253 16.5033 1.56673 19.7265C1.10499 21.0369 2.07717 22.4102 3.46647 22.4102Z" stroke="black" stroke-width="2"/>
<path d="M11.0465 9.72913C13.2942 9.72913 15.1162 7.90707 15.1162 5.65945C15.1162 3.41184 13.2942 1.58978 11.0465 1.58978C8.79892 1.58978 6.97686 3.41184 6.97686 5.65945C6.97686 7.90707 8.79892 9.72913 11.0465 9.72913Z" stroke="black" stroke-width="2"/>
</svg>
