<svg width="12" height="12" viewBox="0 0 12 12" fill="none" xmlns="http://www.w3.org/2000/svg">
<path d="M7.09083 0.500605C7.33874 0.341676 7.66961 0.430335 7.80484 0.691925L8.25272 1.55831C8.34242 1.73184 8.52498 1.83724 8.72011 1.82816L9.69436 1.78284C9.98852 1.76915 10.2307 2.01138 10.2171 2.30553L10.1717 3.27978C10.1627 3.47492 10.2681 3.65747 10.4416 3.74718L11.308 4.19505C11.5696 4.33028 11.6582 4.66116 11.4993 4.90906L10.9729 5.73013C10.8675 5.89458 10.8675 6.10537 10.9729 6.26983L11.4993 7.09089C11.6582 7.3388 11.5696 7.66968 11.308 7.8049L10.4416 8.25278C10.2681 8.34249 10.1627 8.52504 10.1717 8.72018L10.2171 9.69442C10.2307 9.98858 9.98852 10.2308 9.69436 10.2171L8.72011 10.1718C8.52498 10.1627 8.34242 10.2681 8.25272 10.4416L7.80484 11.308C7.66961 11.5696 7.33874 11.6583 7.09083 11.4993L6.26977 10.973C6.10531 10.8675 5.89452 10.8675 5.73006 10.973L4.909 11.4993C4.6611 11.6583 4.33022 11.5696 4.19499 11.308L3.74711 10.4416C3.65741 10.2681 3.47485 10.1627 3.27972 10.1718L2.30547 10.2171C2.01131 10.2308 1.76909 9.98858 1.78278 9.69442L1.8281 8.72018C1.83718 8.52504 1.73178 8.34249 1.55825 8.25278L0.691864 7.8049C0.430274 7.66968 0.341615 7.3388 0.500545 7.09089L1.02692 6.26983C1.13235 6.10537 1.13235 5.89458 1.02692 5.73013L0.500544 4.90906C0.341615 4.66116 0.430274 4.33028 0.691864 4.19505L1.55825 3.74718C1.73178 3.65747 1.83718 3.47492 1.8281 3.27978L1.78278 2.30553C1.76909 2.01137 2.01131 1.76915 2.30547 1.78284L3.27972 1.82816C3.47486 1.83724 3.65741 1.73184 3.74712 1.55831L4.19499 0.691925C4.33022 0.430335 4.6611 0.341676 4.909 0.500606L5.73006 1.02698C5.89452 1.13241 6.10531 1.13241 6.26977 1.02698L7.09083 0.500605Z" fill="#4192EF"/>
<path d="M3.97211 6.1523L5.20306 7.29563L7.99981 4.59912" stroke="#F3F4F6" stroke-linecap="round" stroke-linejoin="round"/>
</svg>
